<?xml version="1.0" encoding="utf-8"?>
<?xml-stylesheet type="text/xsl" href="rss1.xsl"?>
<rss version="2.0" xmlns:atom="http://www.w3.org/2005/Atom" xmlns:content="http://purl.org/rss/1.0/modules/content/" xmlns:dc="http://purl.org/dc/elements/1.1/" xmlns:media="http://search.yahoo.com/mrss/">
<channel>
 <title>Getty</title>
 <link>http://www.gettyimg.com/</link>
 <atom:link href="http://www.gettyimg.com/" rel="self" type="application/rss+xml" />

 
                <item>
                <title><![CDATA[【HD Live Performances】WEB-DL - iHeartRadio Music Festival (2023) DAY 1 - HULU.WEB-DL.AAC.1080-fstambuk]]></title>
                <link><![CDATA[https://sharemania.us/threads/iheartradio-music-festival-2023-day-1-hulu-web-dl-aac-1080-fstambuk.230163/]]></link>
                <description><![CDATA[<article>
<blockquote class="messageText SelectQuoteContainer ugc baseHtml">
<div style="text-align: center"><img src="https://i.imgur.com/ddGygfu.gif" class="bbCodeImage LbImage" alt="[​IMG]" data-url="https://i.imgur.com/ddGygfu.gif" style=""><br>
​</div>The iHeartRadio Music Festival returns from the T-Mobile Arena in Las Vegas. The biggest music event of the year offers historic moments and collaborations by the biggest superstars from all genres of music. Performers include Foo Fighters, Fall Out Boy, Kelly Clarkson, Kane Brown, Lil Wayne, Lil Durk, Lenny Kravitz, Miguel, Public Enemy, Travis Scott, Tim McGraw, TLC, Thirty Seconds to Mars, Agnez Mo, Paul Cauthen, and Bakar.<br>
<br>
<ul>
<li>TVMA</li>
<li>Award Shows &amp; Events, Music</li>
<li>TV Series</li>
<li>2023</li>
</ul><div style="text-align: center"><br>
​</div>
<div class="ToggleTriggerAnchor bbCodeSpoilerContainer">
<button type="button" class="button bbCodeSpoilerButton ToggleTrigger Tooltip JsOnly" data-target="> .SpoilerTarget"><span>Spoiler: <span class="SpoilerTitle">iHeartRadio 2023</span></span></button>
<div class="SpoilerTarget bbCodeSpoilerText">
<div class="bbCodeBlock bbCodeCode">
<div class="type">Code:</div>
<pre>Format                                   : MPEG-4
Format profile                           : Base Media
Codec ID                                 : isom (isom/iso2/avc1/mp41)
File size                                : 7.42 GiB
Duration                                 : 2 h 58 min
Overall bit rate mode                    : Variable
Overall bit rate                         : 5 949 kb/s
Collection                               : iHeartRadio Music Festival 2023
Season                                   : 1
Track name                               : iHeartRadio Music Festival 2023
Description                              : The iHeartRadio Music Festival returns from the T-Mobile Arena in Las Vegas. The biggest music event of the year offers historic moments and collaborations by the biggest superstars from all genres of music. Performers include Foo Fighters, Fall Out Boy, Kelly Clarkson, Kane Brown, Lil Wayne, Lil Durk, Lenny Kravitz, Miguel, Public Enemy, Travis Scott, Tim McGraw, TLC, Thirty Seconds to Mars, Agnez Mo, Paul Cauthen, and Bakar.
Recorded date                            : 2023
Writing application                      : Lavf60.3.100
Cover                                    : Yes
Part_ID                                  : 1

Video
ID                                       : 1
Format                                   : AVC
Format/Info                              : Advanced Video Codec
Format profile                           : High@L4
Format settings                          : CABAC / 4 Ref Frames
Format settings, CABAC                   : Yes
Format settings, Reference frames        : 4 frames
Codec ID                                 : avc1
Codec ID/Info                            : Advanced Video Coding
Duration                                 : 2 h 58 min
Bit rate                                 : 5 875 kb/s
Width                                    : 1 920 pixels
Height                                   : 1 080 pixels
Display aspect ratio                     : 16:9
Frame rate mode                          : Constant
Frame rate                               : 29.970 (29970/1000) FPS
Color space                              : YUV
Chroma subsampling                       : 4:2:0
Bit depth                                : 8 bits
Scan type                                : Progressive
Bits/(Pixel*Frame)                       : 0.095
Stream size                              : 7.33 GiB (99%)
Codec configuration box                  : avcC

Audio
ID                                       : 3
Format                                   : AAC LC SBR
Format/Info                              : Advanced Audio Codec Low Complexity with Spectral Band Replication
Commercial name                          : HE-AAC
Format settings                          : Explicit
Codec ID                                 : mp4a-40-2
Duration                                 : 2 h 58 min
Bit rate mode                            : Constant
Bit rate                                 : 64.0 kb/s
Channel(s)                               : 2 channels
Channel layout                           : L R
Sampling rate                            : 48.0 kHz
Frame rate                               : 23.438 FPS (2048 SPF)
Compression mode                         : Lossy
Stream size                              : 81.8 MiB (1%)
Title                                    : English
Language                                 : English
Default                                  : Yes
Alternate group                          : 1

Text
ID                                       : 4
Format                                   : Timed Text
Muxing mode                              : sbtl
Codec ID                                 : tx3g
Duration                                 : 2 h 58 min
Bit rate mode                            : Variable
Bit rate                                 : 124 b/s
Stream size                              : 162 KiB (0%)
Title                                    : English
Language                                 : English
Default                                  : Yes
Forced                                   : No
Alternate group                          : 3</pre>
</div><div style="text-align: center">​</div></div>
</div><div style="text-align: center">
<div class="bbCodeBlock bbCodeVfcHH HiddenContent">
<div class="attribution type">Hidden Content:</div>
<blockquote>You must reply before you can see the hidden data contained here.</blockquote>
</div><img src="https://i.postimg.cc/y8yRbctF/image.png" class="bbCodeImage LbImage" alt="[​IMG]" data-url="https://i.postimg.cc/y8yRbctF/image.png" style="">​</div>
<div class="messageTextEndMarker">&nbsp;</div>
</blockquote>
</article>]]></description>
                <author><![CDATA[fstambuk]]></author>
                </item>

                </channel></rss>